<?xml version="1.0" standalone="no"?>
<!DOCTYPE svg PUBLIC "-//W3C//DTD SVG 1.1//EN" "http://www.w3.org/Graphics/SVG/1.1/DTD/svg11.dtd" >
<svg xmlns="http://www.w3.org/2000/svg">
<metadata>
This is a custom SVG webfont generated by Font Squirrel.
Foundry     : GarageFonts
</metadata>
<defs>
<font id="FreightSansRegular" horiz-adv-x="1452" >
<font-face units-per-em="2048" ascent="1536" descent="-512" />
<missing-glyph horiz-adv-x="466" />
<glyph unicode=" "  horiz-adv-x="466" />
<glyph unicode="&#x09;" horiz-adv-x="466" />
<glyph unicode="&#xa0;" horiz-adv-x="466" />
<glyph unicode="!" horiz-adv-x="532" d="M164 80q0 43 29.5 72.5t72.5 29.5q23 0 39.5 -8t32.5 -22q23 -23 27 -53.5t-6.5 -58.5t-35 -47.5t-57.5 -19.5q-43 0 -72.5 32t-29.5 75zM190 1331h154l-39 -950h-72z" />
<glyph unicode="&#x22;" horiz-adv-x="620" d="M-6 815l260 508l123 -59l-316 -449h-67zM299 815l260 508l123 -59l-316 -449h-67z" />
<glyph unicode="#" horiz-adv-x="1153" d="M39 340v94h211l88 324h-258v94h282l123 463h101l-125 -463h352l123 463h98l-123 -463h185v-94h-211l-86 -324h256v-94h-283l-131 -492h-98l131 492h-350l-134 -492h-98l133 492h-186zM348 434h352l86 324h-352z" />
<glyph unicode="$" horiz-adv-x="1005" d="M70 92l47 117q125 -86 260 -111l69 508q-78 23 -131 46.5t-108 64.5q-113 82 -113 241q0 152 113 250t295 99h27q11 0 20 -2l24 190h89l-27 -201q135 -25 252 -98l-47 -115q-98 70 -222 95l-63 -467q82 -25 148.5 -56.5t112.5 -74.5t70.5 -101.5t24.5 -134.5 q0 -160 -120 -264q-121 -104 -312 -105h-30l-31 -225h-88l30 236q-159 22 -290 108zM221 969q0 -90 60.5 -140.5t189.5 -95.5l61 455h-30q-137 0 -209 -62.5t-72 -156.5zM463 90h20q135 0 219 68.5t84 173.5q0 94 -61 149.5t-197 98.5z" />
<glyph unicode="%" horiz-adv-x="1521" d="M31 987q0 143 92 242q94 100 248 100t245 -98q94 -96 95 -244q0 -143 -95 -239q-92 -98 -245 -99q-152 0 -246 99q-94 96 -94 239zM125 987q0 -53 17.5 -98t50 -79t77.5 -53.5t101 -19.5q55 0 101 19.5t79 53.5t50 79t17 98q0 111 -67.5 182.5t-179.5 71.5 q-113 0 -179.5 -71.5t-66.5 -182.5zM186 -31l1041 1340h108l-1036 -1340h-113zM809 291q0 141 92 239q94 98 248 99q150 0 246 -99q94 -96 94 -239t-94 -244q-92 -98 -246 -98t-248 98q-92 99 -92 244zM903 291q0 -111 66.5 -182.5t179.5 -71.5t180.5 71.5t67.5 182.5 q0 51 -17.5 97t-50.5 80t-79 53.5t-101 19.5t-100 -19.5t-78 -53.5t-50.5 -80t-17.5 -97z" />
<glyph unicode="&#x26;" horiz-adv-x="1277" d="M61 324q0 129 88.5 221t229.5 137q-217 113 -217 301q0 129 100 223q100 98 262 99q147 0 242 -91q92 -90 92 -213q0 -104 -69.5 -184t-188.5 -127q152 -78 301 -254l217 344h152l-307 -413l290 -359l-125 -37l-239 305q-197 -303 -451 -303q-172 0 -274 103 q-103 103 -103 248zM190 330q0 -49 18.5 -94.5t53.5 -78t83 -52t110 -19.5q197 0 376 260q-188 225 -372 293q-269 -121 -269 -309zM293 991q0 -168 221 -262q219 96 219 262q0 86 -62.5 144.5t-156.5 58.5q-100 0 -160.5 -58.5t-60.5 -144.5z" />
<glyph unicode="'" horiz-adv-x="333" d="M-6 815l260 508l123 -59l-316 -449h-67z" />
<glyph unicode="(" horiz-adv-x="716" d="M139 463q0 178 52.5 341t138.5 281q86 119 177 204t183 132l60 -90q-193 -102 -344 -336q-152 -236 -152 -532q0 -156 46 -300.5t120 -254.5q76 -111 160 -188.5t170 -122.5l-60 -91q-92 47 -183 132.5t-177 203.5q-86 117 -138.5 280t-52.5 341z" />
<glyph unicode=")" horiz-adv-x="716" d="M-33 -403q193 102 342 333q152 236 152 533q0 299 -152 534q-150 231 -342 334l60 90q92 -47 183 -132t177 -204t138.5 -281.5t52.5 -340.5t-52.5 -341t-138.5 -280q-86 -119 -177 -203.5t-183 -132.5z" />
<glyph unicode="*" horiz-adv-x="694" d="M27 825l274 146v10l-270 147l78 109l221 -221l8 2l57 303l127 -41l-141 -276l6 -7l297 43v-133l-297 43l-6 -6l137 -278l-125 -39l-57 305l-6 2l-221 -217z" />
<glyph unicode="+" horiz-adv-x="995" d="M84 424l6 113h354v364h113v-364h350l6 -113h-356v-367h-113v367h-360z" />
<glyph unicode="," horiz-adv-x="382" d="M23 -266q180 129 180 243q0 39 -29 65t-98 52q4 41 33.5 71t76.5 30q57 0 101.5 -46.5t44.5 -115.5q0 -186 -254 -355z" />
<glyph unicode="-" horiz-adv-x="598" d="M70 438v119h462v-119h-462z" />
<glyph unicode="." horiz-adv-x="382" d="M90 80q0 43 30 72.5t73 29.5q23 0 39 -8t32 -22q23 -23 27 -53.5t-6.5 -58.5t-35 -47.5t-56.5 -19.5q-43 0 -73 32t-30 75z" />
<glyph unicode="/" horiz-adv-x="423" d="M-106 -408l497 1846h103l-500 -1846h-100z" />
<glyph unicode="0" horiz-adv-x="1183" d="M98 483q0 221 140 367q141 143 352 143q213 0 354 -143q141 -145 141 -367q0 -223 -141 -366t-354 -144q-211 0 -352 144q-140 145 -140 366zM225 483q0 -166 103 -278q100 -111 262 -111t264 111q104 111 104 278q0 168 -104 279q-102 111 -264 110q-162 0 -262 -110 q-103 -113 -103 -279z" />
<glyph unicode="1" horiz-adv-x="667" d="M88 858l369 135v-993h-125v831l-238 -90z" />
<glyph unicode="2" horiz-adv-x="901" d="M96 0v117q322 242 398 311q156 141 155 254q0 86 -58.5 139t-156.5 53q-139 0 -291 -118l-45 108q162 129 348 129q74 0 136.5 -21.5t106.5 -60.5t68.5 -93t24.5 -120q0 -37 -7 -70.5t-25 -68.5t-36 -62.5t-55 -64.5l-57 -57q-10 -10 -28.5 -26.5t-45.5 -37.5l-75 -59 q-14 -10 -36 -26.5t-52 -39.5q-29 -23 -51.5 -39t-37.5 -26h553v-121h-733z" />
<glyph unicode="3" horiz-adv-x="858" d="M39 858q168 135 362 135q84 0 152 -23.5t116 -64.5t74.5 -99t26.5 -128q0 -55 -21.5 -106.5t-58.5 -95.5t-88 -77.5t-113 -56.5q150 -12 238 -106q90 -94 90 -220q0 -178 -129 -284q-129 -111 -317 -111q-201 0 -330 80l33 117q129 -80 301 -80q137 0 223 71.5t86 196.5 q0 113 -79 177.5t-208 68.5q-45 2 -91 -3t-95 -16v105q424 100 424 324q0 104 -64.5 158t-181.5 54q-147 0 -303 -122z" />
<glyph unicode="4" horiz-adv-x="1026" d="M31 119l657 880h111v-847h194l6 -121h-200v-408h-123v408h-629zM195 152h481v645z" />
<glyph unicode="5" horiz-adv-x="858" d="M39 -295l24 125q158 -88 308 -88q68 0 126 22.5t99 62.5t64.5 97.5t23.5 126.5q0 61 -21.5 112.5t-62.5 90.5t-98.5 60.5t-126.5 21.5q-129 0 -244 -39l-43 41l82 631h608l6 -123h-510l-59 -420q74 20 172 20q190 0 309 -108q117 -109 117 -281q0 -190 -129 -313 q-127 -123 -317 -123q-183 0 -328 84z" />
<glyph unicode="6" horiz-adv-x="1030" d="M90 487q0 274 184 506q184 233 529 314l37 -119q-254 -59 -411 -204.5t-202 -348.5l4 -2q152 143 344 143q154 0 263 -102t108 -279q0 -184 -117 -303q-113 -119 -303 -119q-203 0 -319 146q-117 147 -117 368zM223 461q0 -156 82 -262q84 -109 225 -109q131 0 209 82 t78 217q0 125 -74.5 200t-191.5 75q-180 0 -322 -136q-6 -30 -6 -67z" />
<glyph unicode="7" horiz-adv-x="899" d="M37 844l6 125h809v-103l-580 -1243h-129l572 1221h-678z" />
<glyph unicode="8" horiz-adv-x="1003" d="M92 313q0 123 84 207q84 86 186 121q-119 53 -184 121.5t-65 177.5q0 156 110 254q111 98 287 98q86 0 156.5 -24.5t121 -69.5t77 -107.5t26.5 -136.5q0 -55 -19.5 -104t-52.5 -89t-76 -72t-92 -52q123 -57 191.5 -127t68.5 -180q0 -150 -106 -254q-109 -102 -303 -103 q-100 0 -177 26t-128.5 72t-78 107t-26.5 135zM221 330q0 -111 75 -177.5t210 -66.5t205.5 60.5t70.5 164.5q0 109 -94 170q-47 33 -93 56.5t-114 52.5l-20 8q-104 -37 -172 -105.5t-68 -162.5zM242 954q0 -51 22.5 -91t77.5 -77q29 -16 51.5 -30.5t40.5 -22.5l121 -51 q207 84 207 256q0 53 -19.5 98t-53.5 77t-81 50.5t-102 18.5q-123 0 -193.5 -67t-70.5 -161z" />
<glyph unicode="9" horiz-adv-x="1030" d="M84 571q0 182 115 303q117 119 307 119q201 0 317 -147q117 -145 117 -367q0 -272 -184 -506q-184 -233 -529 -313l-37 119q254 59 411 204.5t202 348.5l-4 2q-152 -143 -344 -144q-154 0 -262 103q-109 102 -109 278zM213 578q0 -125 74.5 -200t191.5 -75q180 0 322 135 q6 31 6 68q0 156 -84 264q-82 106 -223 107q-131 0 -209 -82t-78 -217z" />
<glyph unicode=":" horiz-adv-x="382" d="M90 80q0 43 30 72.5t73 29.5q23 0 39 -8t32 -22q23 -23 27 -53.5t-6.5 -58.5t-35 -47.5t-56.5 -19.5q-43 0 -73 32t-30 75zM90 733q0 43 30 72.5t73 29.5q23 0 39 -8t32 -22q23 -23 27 -53.5t-6.5 -58.5t-35 -47.5t-56.5 -19.5q-43 0 -73 32t-30 75z" />
<glyph unicode=";" horiz-adv-x="382" d="M90 733q0 43 30 72.5t73 29.5q23 0 39 -8t32 -22q23 -23 27 -53.5t-6.5 -58.5t-35 -47.5t-56.5 -19.5q-43 0 -73 32t-30 75zM23 -266q180 129 180 243q0 39 -29 65t-98 52q4 41 33.5 71t76.5 30q57 0 101.5 -46.5t44.5 -115.5q0 -186 -254 -355z" />
<glyph unicode="&#x3c;" horiz-adv-x="933" d="M70 426v111l780 391v-125l-637 -311v-21l639 -311v-123z" />
<glyph unicode="=" horiz-adv-x="913" d="M72 244l8 112h758l8 -112h-774zM72 717h774l-8 -113h-758z" />
<glyph unicode="&#x3e;" horiz-adv-x="933" d="M78 37v123l639 311v21l-637 311v125l780 -391v-111z" />
<glyph unicode="?" horiz-adv-x="714" d="M106 1174v116q63 18 148 19q166 0 272 -103q106 -100 107 -231q0 -80 -35 -139q-18 -29 -35.5 -48.5t-39 -34t-47 -26.5t-58.5 -27q-88 -39 -124 -65.5t-36 -73.5q0 -80 123 -174l-68 -22q-158 92 -157 213q0 82 50 129t148 88q88 37 131 73.5t43 104.5q0 45 -19.5 85 t-56 69.5t-89 47t-115.5 17.5q-50 0 -142 -18zM201 80q0 43 29.5 72.5t72.5 29.5q23 0 39 -8t33 -22q23 -23 27 -53.5t-6.5 -58.5t-35 -47.5t-57.5 -19.5q-43 0 -72.5 32t-29.5 75z" />
<glyph unicode="@" horiz-adv-x="1701" d="M88 496q0 332 229 567q231 238 560 237q309 0 526 -186q219 -188 219 -487q0 -242 -115 -387q-115 -141 -270 -142q-86 0 -146.5 42t-84.5 110q-115 -135 -250 -135q-127 0 -211 96q-82 94 -82 240q0 193 127 331q125 141 301 142q98 0 203 -62l118 53l-100 -491 q-8 -39 -8 -78q0 -158 147 -158q121 0 207 117t86 322q0 266 -201 436t-466 170q-295 0 -504 -219q-207 -219 -207 -516q0 -287 184 -484t467 -196q111 0 252 41l18 -68q-139 -43 -274 -43q-315 0 -520 215q-205 214 -205 533zM578 459q0 -111 58 -179.5t150 -68.5 q104 0 197 104l88 433q-80 84 -192 83q-123 0 -213 -114q-88 -113 -88 -258z" />
<glyph unicode="A" horiz-adv-x="1177" d="M31 0l485 1280h154l477 -1280h-133l-135 367h-580l-135 -367h-133zM344 485h490l-244 666z" />
<glyph unicode="B" horiz-adv-x="1126" d="M164 0v1280h399q223 0 329.5 -90t106.5 -244q0 -100 -61 -180t-184 -111q141 -27 213.5 -104.5t72.5 -194.5q0 -166 -112.5 -261t-347.5 -95h-416zM295 119h295q319 0 319 237q0 225 -352 226h-262v-463zM295 700h254q147 0 233 61.5t86 174.5q0 106 -75.5 165.5 t-223.5 59.5h-274v-461z" />
<glyph unicode="C" horiz-adv-x="1200" d="M96 637q0 303 172 485q174 184 447 185q223 0 395 -105l-41 -117q-162 102 -356 103q-215 0 -351 -146q-133 -145 -133 -401q0 -250 133 -401q131 -147 355 -148q203 0 358 115l25 -129q-160 -104 -385 -105q-281 0 -449 181q-170 182 -170 483z" />
<glyph unicode="D" horiz-adv-x="1286" d="M164 0v1280h348q309 0 494 -174q184 -176 184 -457q0 -301 -182 -477q-182 -172 -506 -172h-338zM295 121h213q127 0 228.5 32.5t173 98t110.5 162t39 225.5q0 246 -145.5 383t-409.5 137h-209v-1038z" />
<glyph unicode="E" horiz-adv-x="1038" d="M164 0v1280h774v-121h-643v-459h536v-118h-536v-461h643v-121h-774z" />
<glyph unicode="F" horiz-adv-x="980" d="M164 0v1280h754v-123h-623v-477h516v-121h-516v-559h-131z" />
<glyph unicode="G" horiz-adv-x="1280" d="M96 637q0 303 172 485q174 184 447 185q231 0 405 -107l-43 -119q-164 106 -364 107q-215 0 -351 -146q-133 -145 -133 -401q0 -250 133 -401q131 -147 355 -148q164 0 307 78v348h-371v119h498v-537q-188 -127 -436 -127q-281 0 -449 181q-170 182 -170 483z" />
<glyph unicode="H" horiz-adv-x="1339" d="M164 0v1280h131v-578h749v578h132v-1280h-132v584h-749v-584h-131z" />
<glyph unicode="I" horiz-adv-x="466" d="M168 0v1280h129v-1280h-129z" />
<glyph unicode="J" horiz-adv-x="847" d="M29 53l22 127q139 -88 264 -88q254 0 254 305v883h129v-887q0 -199 -94 -309.5t-291 -110.5q-159 0 -284 80z" />
<glyph unicode="K" horiz-adv-x="1099" d="M164 0v1280h131v-614h2l592 614h168l-633 -635l643 -645h-170l-600 612h-2v-612h-131z" />
<glyph unicode="L" horiz-adv-x="978" d="M164 0v1280h131v-1157h633v-123h-764z" />
<glyph unicode="M" horiz-adv-x="1558" d="M133 0l43 1280h176l432 -1130l426 1130h174l41 -1280h-133l-20 1118l-420 -1110h-143l-424 1112l-23 -1120h-129z" />
<glyph unicode="N" horiz-adv-x="1331" d="M164 0v1280h147l727 -1098v1098h127v-1292h-141l-733 1108v-1096h-127z" />
<glyph unicode="O" d="M96 637q0 293 178 481t453 189q270 0 449 -185q180 -182 180 -477q0 -293 -178 -483q-178 -188 -453 -189q-272 0 -451 185q-178 184 -178 479zM229 645q0 -246 142 -401q141 -154 360 -154q213 0 352 152q139 156 140 395q0 246 -142 399q-139 154 -358 154 q-217 0 -356 -152q-138 -149 -138 -393z" />
<glyph unicode="P" horiz-adv-x="1062" d="M164 0v1280h321q248 0 374 -107.5t126 -291.5q0 -209 -135 -316.5t-381 -111.5l-174 -2v-451h-131zM295 571l182 4q373 10 373 299q0 137 -94 211t-275 74h-186v-588z" />
<glyph unicode="Q" d="M96 637q0 293 178 481t453 189q270 0 449 -185q180 -182 180 -477q0 -109 -26.5 -205t-77 -176t-121 -140.5t-156.5 -96.5l420 -213l-58 -113l-524 281q-29 -4 -50.5 -6.5t-37.5 -2.5q-272 0 -451 185q-178 184 -178 479zM229 645q0 -246 142 -401q141 -154 360 -154 q213 0 352 152q139 156 140 395q0 246 -142 399q-139 154 -358 154q-217 0 -356 -152q-138 -149 -138 -393z" />
<glyph unicode="R" horiz-adv-x="1083" d="M164 0v1280h344q233 0 349 -97.5t116 -271.5q0 -137 -81 -228t-216 -132l354 -551h-151l-328 528l-256 -16v-512h-131zM295 629l229 8q68 2 126.5 21.5t100.5 54.5t66.5 83t24.5 109q0 125 -90 190.5t-258 65.5h-199v-532z" />
<glyph unicode="S" horiz-adv-x="1003" d="M74 92l47 117q174 -119 368 -119q135 0 219.5 68.5t84.5 173.5q0 104 -78 161.5t-246 106.5q-80 25 -136.5 48.5t-115.5 64.5q-121 84 -121 245q0 152 115 250q117 98 295 99q213 0 385 -111l-47 -115q-156 106 -336 107q-137 0 -211 -62.5t-74 -156.5q0 -49 18.5 -85 t58.5 -66t100.5 -54.5t146.5 -50.5q80 -25 136 -51.5t116 -67.5q119 -88 119 -252q0 -160 -121 -264t-312 -105q-225 0 -411 119z" />
<glyph unicode="T" horiz-adv-x="1126" d="M47 1157v123h1032v-123h-450v-1157h-131v1157h-451z" />
<glyph unicode="U" horiz-adv-x="1261" d="M150 469v811h126v-795q0 -186 90.5 -288.5t268.5 -102.5q172 0 261 100.5t89 292.5v793h129v-791q0 -242 -125 -379t-360 -137q-229 0 -354 133.5t-125 362.5z" />
<glyph unicode="V" horiz-adv-x="1136" d="M20 1280h134l415 -1145l414 1145h133l-473 -1280h-154z" />
<glyph unicode="W" horiz-adv-x="1832" d="M84 1280h135l299 -1094l326 1094h155l332 -1094l287 1094h131l-358 -1280h-127l-344 1126l-347 -1126h-124z" />
<glyph unicode="X" horiz-adv-x="1150" d="M27 0l469 651l-445 629h156l368 -535l371 535h154l-449 -623l471 -657h-159l-392 567l-391 -567h-153z" />
<glyph unicode="Y" horiz-adv-x="1073" d="M25 1280h147l369 -637l362 637h146l-447 -766v-514h-131v514z" />
<glyph unicode="Z" horiz-adv-x="1044" d="M49 0v96l760 1065h-737v119h901v-98l-760 -1063h758v-119h-922z" />
<glyph unicode="[" horiz-adv-x="792" d="M201 -455v1837h532v-104h-416v-1628h416v-105h-532z" />
<glyph unicode="\" horiz-adv-x="423" d="M-68 1438h103l497 -1846h-100z" />
<glyph unicode="]" horiz-adv-x="792" d="M61 -350h416v1628h-416v104h531v-1837h-531v105z" />
<glyph unicode="^" horiz-adv-x="772" d="M106 1061l232 373h143l232 -373h-97l-204 276h-2l-207 -276h-97z" />
<glyph unicode="_" horiz-adv-x="911" d="M-23 0h957v-100h-957v100z" />
<glyph unicode="`" horiz-adv-x="811" d="M145 1427h164l242 -366h-94z" />
<glyph unicode="a" horiz-adv-x="899" d="M68 233q0 299 569 334v56q0 223 -221 223q-74 0 -159 -33t-148 -80l-29 119q33 25 76 45.5t89 35.5t93 23.5t90 8.5q336 0 336 -336v-451q0 -53 16.5 -73.5t69.5 -20.5h8l-8 -104h-27q-156 0 -178 133h-6q-115 -139 -274 -140q-66 0 -120.5 19.5t-93 54.5t-61 83 t-22.5 103zM201 248q0 -74 53 -119t139 -45q135 0 244 123v274q-236 -27 -336 -81t-100 -152z" />
<glyph unicode="b" horiz-adv-x="1046" d="M147 -31v1411l127 27v-567q125 119 283 118q182 0 297 -133q113 -131 113 -344q0 -221 -131 -364q-129 -143 -332 -144q-121 0 -230 52zM274 162q94 -74 236 -74q74 0 134.5 28.5t103.5 79t65.5 122t22.5 157.5q0 80 -21.5 147.5t-61.5 116.5t-96.5 76t-124.5 27 q-145 0 -258 -105v-575z" />
<glyph unicode="c" horiz-adv-x="923" d="M86 467q0 219 129 358q133 139 332 140q166 0 293 -80l-33 -115q-113 76 -260 76q-76 0 -137.5 -27.5t-104.5 -77t-65.5 -118t-22.5 -152.5q0 -86 23.5 -155.5t67.5 -120t105.5 -77t135.5 -26.5q139 0 260 78l27 -117q-129 -80 -291 -80q-209 0 -334 136 q-125 137 -125 358z" />
<glyph unicode="d" horiz-adv-x="1052" d="M86 461q0 219 131 356q131 141 334 141q119 0 227 -51v473l127 27v-1407h-127v88q-125 -115 -272 -115q-193 0 -305 136q-115 135 -115 352zM217 463q0 -162 84 -268q86 -104 227 -105q139 0 250 105v577q-94 72 -233 72q-74 0 -134.5 -28t-103.5 -79t-66.5 -120.5 t-23.5 -153.5z" />
<glyph unicode="e" horiz-adv-x="962" d="M86 461q0 223 125 362q125 141 317 142q156 0 249 -93.5t93 -253.5q0 -86 -20 -149l-635 -4v-10q0 -80 23.5 -146.5t66.5 -115t103.5 -75t134.5 -26.5q152 0 272 78l25 -117q-129 -80 -301 -80q-203 0 -328 136q-125 137 -125 352zM223 565l520 2q2 6 2 41 q0 111 -57 176.5t-168 65.5q-121 0 -201 -81t-96 -204z" />
<glyph unicode="f" horiz-adv-x="610" d="M23 827l8 80l141 33l2 147q6 338 283 338q84 0 172 -41l-6 -18q-6 -18 -11.5 -39.5t-9.5 -40.5l-4 -16q-10 0 -27.5 4t-42.5 14q-51 20 -73 21q-156 0 -156 -219v-156h295l-6 -113h-289v-821h-125v817z" />
<glyph unicode="g" horiz-adv-x="958" d="M16 -233q0 80 55.5 144t147.5 87q-127 47 -127 149q0 57 43 105.5t111 73.5q-152 92 -152 286q0 150 103 252q100 100 266 101q123 0 221 -56l260 21l6 -127l-207 20q33 -33 54.5 -93t21.5 -118q0 -150 -104 -247q-102 -96 -260 -97q-66 0 -140 27q-104 -43 -104 -113 q0 -47 47 -71.5t166 -24.5h121q389 0 389 -246q0 -152 -146 -250q-145 -98 -348 -98q-188 0 -307 76q-117 76 -117 199zM139 -211q0 -86 86 -139t234 -53q150 0 250 63q102 66 102 158q0 80 -68.5 114.5t-216.5 34.5q-117 0 -196 6q-86 -23 -138.5 -74t-52.5 -110zM219 610 q0 -104 65.5 -171.5t176.5 -67.5q106 0 169.5 67.5t63.5 177.5q0 111 -61.5 177.5t-177.5 66.5q-111 0 -173.5 -69.5t-62.5 -180.5z" />
<glyph unicode="h" horiz-adv-x="1034" d="M147 0v1380l127 27v-592q150 150 326 150q137 0 215 -84t78 -238v-643h-127v606q0 238 -201 238q-158 0 -291 -133v-711h-127z" />
<glyph unicode="i" horiz-adv-x="428" d="M127 1247q0 37 22.5 63.5t63.5 26.5t63.5 -26.5t22.5 -63.5q0 -39 -22.5 -66.5t-63.5 -27.5t-63.5 27.5t-22.5 66.5zM150 0v938l126 27v-965h-126z" />
<glyph unicode="j" horiz-adv-x="423" d="M-31 -422q100 51 142 131q39 76 39 225v1004l126 27v-1031q0 -180 -51 -280q-49 -100 -170 -166zM127 1247q0 37 22.5 63.5t63.5 26.5t63.5 -26.5t22.5 -63.5q0 -39 -22.5 -66.5t-63.5 -27.5t-63.5 27.5t-22.5 66.5z" />
<glyph unicode="k" horiz-adv-x="888" d="M147 0v1380l127 27v-901h5l421 432h160l-450 -446l452 -492h-162l-421 467h-5v-467h-127z" />
<glyph unicode="l" horiz-adv-x="421" d="M147 0v1380l127 27v-1407h-127z" />
<glyph unicode="m" horiz-adv-x="1587" d="M147 0v938l127 27v-129q141 129 297 129q186 0 254 -156q156 156 332 156q135 0 212 -85t77 -239v-641h-127v604q0 240 -199 240q-133 0 -264 -121q2 -12 3 -33.5t1 -50.5v-639h-127v604q0 240 -198 240q-135 0 -261 -109v-735h-127z" />
<glyph unicode="n" horiz-adv-x="1034" d="M147 0v938l127 27v-154q154 154 320 154q141 0 220 -84t79 -238v-643h-127v606q0 123 -50 180.5t-157 57.5q-152 0 -285 -133v-711h-127z" />
<glyph unicode="o" horiz-adv-x="1087" d="M86 467q0 221 131 358q133 139 332 140q197 0 323 -136q127 -137 127 -358q0 -223 -131 -360t-329 -138q-201 0 -326 136q-127 137 -127 358zM213 471q0 -86 23.5 -156.5t67.5 -121t105.5 -78t135.5 -27.5q147 0 237 105q92 106 92 274q0 86 -23.5 156.5t-67.5 121 t-105.5 78t-134.5 27.5q-147 0 -240 -107q-90 -106 -90 -272z" />
<glyph unicode="p" horiz-adv-x="1054" d="M147 -477v1419l127 27v-125q125 115 273 114q188 0 303 -135q117 -135 117 -350q0 -221 -131 -360q-129 -139 -332 -140q-125 0 -230 50v-500h-127zM274 162q94 -74 236 -74q147 0 235 107q90 109 91 276q0 82 -21.5 150.5t-62.5 117.5t-98.5 76t-127.5 27 q-139 0 -252 -105v-575z" />
<glyph unicode="q" horiz-adv-x="1052" d="M86 461q0 219 131 356q131 141 334 141q131 0 248 -53l106 60v-1442h-127v565q-125 -115 -272 -115q-193 0 -305 136q-115 135 -115 352zM217 463q0 -84 22.5 -152.5t62.5 -118t97.5 -77t128.5 -27.5q137 0 250 107v577q-96 74 -233 74q-74 0 -134.5 -29t-103.5 -79 t-66.5 -120.5t-23.5 -154.5z" />
<glyph unicode="r" horiz-adv-x="729" d="M147 0v938l127 27v-201q102 201 277 201q86 0 164 -43l-33 -119q-70 41 -143 41q-158 0 -265 -242v-602h-127z" />
<glyph unicode="s" horiz-adv-x="792" d="M68 57l34 117q129 -86 277 -86q88 0 149.5 42t61.5 116q0 33 -15.5 59.5t-31.5 40.5q-16 16 -58 35q-37 16 -59 25l-72 22q-123 39 -197.5 97.5t-74.5 168.5q0 61 23.5 111.5t66.5 86.5t101.5 54.5t125.5 18.5q152 0 285 -70l-37 -115q-125 70 -256 70q-86 0 -137 -38 t-51 -105q0 -31 14 -56.5t31 -42.5q14 -14 53 -30q18 -8 32.5 -14.5t29 -11.5t31 -10t40.5 -12q129 -37 203 -97t74 -177q0 -127 -97 -205q-96 -78 -239 -78q-174 0 -307 84z" />
<glyph unicode="t" horiz-adv-x="673" d="M25 827l6 80l141 33l6 213h121l-6 -219h313l-6 -113h-311l-15 -561v-14q0 -162 138 -162q78 0 180 45l22 -111q-104 -49 -208 -49q-252 0 -252 275v20l14 555z" />
<glyph unicode="u" horiz-adv-x="1032" d="M139 295v643h127v-606q0 -238 203 -238q160 0 289 133v711h127v-938l-127 -27v152q-147 -152 -324 -152q-137 0 -216 84t-79 238z" />
<glyph unicode="v" horiz-adv-x="868" d="M6 938h137l297 -774l287 774h133l-368 -940h-115z" />
<glyph unicode="w" horiz-adv-x="1355" d="M31 938h135l217 -748l244 746h114l256 -750l195 752h139l-278 -942h-113l-256 758l-256 -758h-111z" />
<glyph unicode="x" horiz-adv-x="806" d="M8 0l324 481l-303 457h141l233 -365l230 365h141l-299 -453l324 -485h-142l-254 395l-251 -395h-144z" />
<glyph unicode="y" horiz-adv-x="868" d="M-66 -444l39 116q78 -41 144 -41q29 0 53.5 10.5t47 35t45 66.5t46.5 105l64 166l-367 924h137l295 -774l289 774h133l-364 -928l-76 -203q-61 -166 -132 -230t-171 -64q-83 0 -183 43z" />
<glyph unicode="z" horiz-adv-x="802" d="M43 0v100l559 725h-541v113h693v-98l-559 -727h559v-113h-711z" />
<glyph unicode="{" horiz-adv-x="679" d="M39 473l6 70q143 10 201.5 51t58.5 135q0 63 -51 199q-51 135 -51 227q0 129 110.5 190.5t333.5 71.5v-94q-176 -14 -250.5 -51t-74.5 -107q0 -66 51 -204q53 -141 53 -211q0 -113 -70.5 -188t-212.5 -83v-12q141 -8 212 -84t71 -188q0 -68 -53 -209q-51 -135 -51 -199 q0 -74 73.5 -111.5t251.5 -52.5v-92q-223 10 -333.5 70.5t-110.5 189.5q0 92 51 227t51 201q0 92 -58.5 133t-201.5 54z" />
<glyph unicode="|" horiz-adv-x="548" d="M217 -408v1846h113v-1846h-113z" />
<glyph unicode="}" horiz-adv-x="679" d="M33 -377q176 12 250.5 50t74.5 110q0 59 -53 201q-51 135 -51 211q0 113 70.5 188.5t212.5 83.5v12q-141 8 -212 81t-71 190q0 76 51 211q53 143 53 202q0 72 -74.5 109t-250.5 51v94q223 -12 333.5 -72.5t110.5 -189.5q0 -88 -53 -229q-51 -135 -51 -199 q0 -94 59.5 -135t202.5 -51l6 -68l-6 -70q-143 -10 -202.5 -51t-59.5 -135q0 -66 51 -201q53 -141 53 -225q0 -129 -110.5 -189.5t-333.5 -70.5v92z" />
<glyph unicode="~" horiz-adv-x="772" d="M76 375q33 236 182 235q63 0 172 -73q106 -74 137 -74t51.5 29.5t38.5 105.5h84q-33 -236 -182 -236q-63 0 -170 72q-104 74 -137 74q-31 0 -52.5 -28.5t-39.5 -104.5h-84z" />
<glyph unicode="&#xa1;" horiz-adv-x="532" d="M164 1198q0 43 29.5 72.5t72.5 29.5q23 0 39.5 -8t32.5 -22q23 -23 27 -53.5t-6.5 -58.5t-35 -47t-57.5 -19q-43 0 -72.5 31.5t-29.5 74.5zM188 -51l41 950h72l41 -950h-154z" />
<glyph unicode="&#xa2;" horiz-adv-x="911" d="M86 467q0 219 129 358t330 140h22l25 186h88q-14 -98 -20.5 -146.5t-6.5 -50.5q106 -18 187 -69l-33 -115q-74 49 -170 68l-100 -746h12q139 0 260 78l27 -117q-129 -80 -289 -80h-27l-28 -225h-89l33 238q-80 18 -144.5 60t-110.5 104.5t-70.5 143.5t-24.5 173zM217 471 q0 -141 61.5 -238.5t172.5 -128.5l100 742h-6q-154 0 -241 -101.5t-87 -273.5z" />
<glyph unicode="&#xa3;" horiz-adv-x="1013" d="M39 70q68 20 113 44.5t70.5 57.5t36.5 76t11 102q0 102 -6 217h-192l-6 95h194q-6 119 -6 217q0 211 102.5 321.5t282.5 110.5q154 0 281 -76l-33 -113q-127 74 -252 74q-131 0 -193.5 -81t-62.5 -218q0 -27 2 -85t6 -150h401l-6 -95h-391q2 -68 3 -119t1 -86 q0 -84 -14 -139q35 -29 73 -54.5t83 -45.5q86 -39 147 -39q170 0 217 221l94 -20q-14 -150 -97 -233t-200 -83q-174 0 -354 164q-70 -113 -276 -168l-5 13q-4 13 -9 31t-9 34t-4 23z" />
<glyph unicode="&#xa4;" horiz-adv-x="886" d="M74 1032l73 74l121 -121q78 53 176 53q106 0 181 -55l114 115l72 -72l-117 -117q49 -80 49 -174q0 -98 -51 -174l129 -129l-73 -74l-127 127q-78 -53 -177 -53q-100 0 -176 51l-116 -116l-72 71l117 117q-53 84 -54 180q0 106 52 176zM236 735q0 -88 57 -150.5t151 -62.5 t150.5 62.5t56.5 150.5q0 92 -56 152.5t-151 60.5q-94 0 -151 -60.5t-57 -152.5z" />
<glyph unicode="&#xa5;" horiz-adv-x="1116" d="M27 1280h145l369 -612l364 612h142l-404 -645h320l-7 -94h-356v-181h356l7 -92h-363v-268h-127v268h-362l6 92h358v181h-358l-6 94h321z" />
<glyph unicode="&#xa6;" horiz-adv-x="548" d="M217 -285v686h113v-686h-113zM217 629v686h113v-686h-113z" />
<glyph unicode="&#xa7;" horiz-adv-x="962" d="M49 600q-2 45 15.5 86t50 75t77 59.5t97.5 39.5q-121 72 -121 184q0 63 24.5 113.5t67.5 86.5t102.5 54.5t126.5 18.5q152 0 285 -70l-37 -112q-129 68 -256 67q-88 0 -140 -38t-52 -105q0 -33 18.5 -59.5t59.5 -47.5q41 -18 77.5 -31.5t98.5 -29.5l28 -8 q39 -12 71 -22.5t58.5 -21t52 -23.5t54.5 -30q117 -68 117 -194q0 -92 -61.5 -158.5t-166.5 -99.5q106 -70 107 -187q0 -129 -98 -204q-96 -78 -242 -78q-168 0 -307 84l37 114q127 -84 274 -83q92 0 153.5 41.5t61.5 113.5q0 31 -18.5 57.5t-38.5 43.5q-10 8 -27.5 16 t-42.5 18q-23 10 -41 17.5t-33 11.5l-88 27q-31 8 -55.5 15t-45.5 15l-43 17q-22 8 -48 20q-72 35 -110 82t-42 125zM166 627q0 -68 65 -109q63 -39 201 -80q70 -20 117 -36.5t76 -28.5q180 82 180 194q0 55 -46 95t-102 61q-27 10 -64.5 22.5t-84.5 26.5q-47 16 -83 28.5 t-60 22.5q-199 -87 -199 -196z" />
<glyph unicode="&#xa8;" horiz-adv-x="813" d="M104 1215q0 43 30 72.5t73 29.5q23 0 39 -8t32 -22q23 -23 27 -53.5t-6.5 -58.5t-35 -47.5t-56.5 -19.5q-43 0 -73 32t-30 75zM500 1215q0 43 30 72.5t73 29.5q23 0 39 -8t32 -22q23 -23 27 -53.5t-6.5 -58.5t-35 -47.5t-56.5 -19.5q-43 0 -73 32t-30 75z" />
<glyph unicode="&#xa9;" horiz-adv-x="1492" d="M78 637q0 276 194 475q197 197 476 197t473 -197q197 -197 196 -475q0 -276 -196 -473q-195 -197 -473 -197q-279 0 -476 197q-194 199 -194 473zM137 637q0 -252 178 -432q180 -180 433 -180q252 0 430 180q180 180 180 432q0 254 -180 434q-178 182 -430 182 q-250 0 -433 -182q-178 -182 -178 -434zM412 635q0 174 100 276q100 104 264 105q135 0 230 -60l-35 -92q-88 57 -195 58q-117 0 -187.5 -76t-70.5 -207t70.5 -209t189.5 -78q113 0 201 66l20 -101q-94 -59 -225 -59q-80 0 -147.5 26.5t-114.5 76t-73.5 119t-26.5 155.5z " />
<glyph unicode="&#xaa;" horiz-adv-x="696" d="M47 721q0 246 434 268v49q0 166 -155 166q-117 0 -232 -90l-43 88q141 104 283 105q252 0 252 -263v-311q0 -109 78 -196l-111 -25q-41 39 -61 111h-3q-102 -111 -229 -111q-98 0 -155.5 58.5t-57.5 150.5zM150 733q0 -59 38.5 -92t96.5 -33q117 0 196 86v213 q-331 -22 -331 -174z" />
<glyph unicode="&#xab;" horiz-adv-x="1173" d="M51 416v127l479 340l17 -95l-383 -307v-4l383 -307l-17 -94zM586 412v135l504 358l14 -98l-402 -326v-4l402 -325l-14 -99z" />
<glyph unicode="&#xac;" horiz-adv-x="995" d="M84 510l6 113h821v-424h-112v311h-715z" />
<glyph unicode="&#xad;" horiz-adv-x="598" d="M70 438v119h462v-119h-462z" />
<glyph unicode="&#xae;" horiz-adv-x="1492" d="M78 637q0 276 194 475q197 197 476 197t473 -197q197 -197 196 -475q0 -276 -196 -473q-195 -197 -473 -197q-279 0 -476 197q-194 199 -194 473zM137 637q0 -252 178 -432q180 -180 433 -180q252 0 430 180q180 180 180 432q0 254 -180 434q-178 182 -430 182 q-250 0 -433 -182q-178 -182 -178 -434zM506 283v725h233q135 0 206 -58.5t71 -165.5q0 -154 -144 -209l183 -292h-119l-166 268l-162 -8v-260h-102zM606 631l129 4q178 6 178 143t-184 137h-123v-284z" />
<glyph unicode="&#xaf;" horiz-adv-x="813" d="M150 1098l6 92h508l8 -92h-522z" />
<glyph unicode="&#xb0;" horiz-adv-x="729" d="M61 1004q0 127 84 217t220 90q135 0 219 -90t84 -217q0 -125 -84 -216q-82 -88 -219 -88t-220 88q-84 91 -84 216zM150 1004q0 -92 58 -155t157 -63q98 0 156.5 62.5t58.5 155.5q0 94 -58.5 157.5t-156.5 63.5t-156.5 -63.5t-58.5 -157.5z" />
<glyph unicode="&#xb1;" horiz-adv-x="995" d="M84 18l6 111h817l6 -111h-829zM84 465l6 113h352v325h113v-325h352l6 -113h-358v-295h-113v295h-358z" />
<glyph unicode="&#xb2;" horiz-adv-x="675" d="M57 651q20 18 47 40t58 50l94 82q16 14 33.5 29.5t38.5 36.5q43 41 62.5 64.5t39.5 52.5q23 31 30 56t7 54q0 66 -45 103.5t-119 37.5q-104 0 -199 -81l-38 84q100 88 251 88q117 0 187.5 -60.5t70.5 -165.5q0 -61 -118 -149l-158 -117q-66 -47 -92.5 -101.5 t-28.5 -105.5h422l4 -90h-543z" />
<glyph unicode="&#xb3;" horiz-adv-x="675" d="M68 594l20 88q100 -51 213 -51q82 0 138.5 37t56.5 104q0 59 -52.5 98t-144.5 37q-35 0 -65.5 -4t-53.5 -8v80q141 31 213 71.5t72 102.5q0 51 -42 81t-114 30q-106 0 -200 -74l-41 84q113 78 247 78q119 0 188.5 -50.5t69.5 -136.5q0 -139 -217 -194q119 0 183.5 -54.5 t64.5 -134.5q0 -55 -23.5 -98t-64.5 -74t-97.5 -47t-121.5 -16q-139 0 -229 51z" />
<glyph unicode="&#xb4;" horiz-adv-x="811" d="M268 1061l242 366h164l-312 -366h-94z" />
<glyph unicode="&#xb5;" horiz-adv-x="1040" d="M147 -477v1415h127v-598q0 -123 73 -184.5t179 -61.5q49 0 92.5 14.5t76 44t52 75.5t19.5 110v600h127v-938h-127v111q-90 -135 -242 -136q-158 0 -250 134v-586h-127z" />
<glyph unicode="&#xb6;" horiz-adv-x="1026" d="M94 893q0 184 129 287q127 100 344 100h269v-1411h-111v670q-74 -18 -154 -19q-236 0 -356.5 103.5t-120.5 269.5z" />
<glyph unicode="&#xb7;" horiz-adv-x="382" d="M90 469q0 43 30 72.5t73 29.5q23 0 39 -8t32 -22q23 -23 27 -53.5t-6.5 -58.5t-35 -47.5t-56.5 -19.5q-43 0 -73 32t-30 75z" />
<glyph unicode="&#xb8;" horiz-adv-x="813" d="M256 -170l236 231h102l-205 -200h21q104 0 166.5 -44t62.5 -124q0 -88 -83 -147.5t-245 -77.5l-10 86q236 12 236 129q0 98 -152 98q-53 0 -117 -12z" />
<glyph unicode="&#xb9;" horiz-adv-x="675" d="M129 1262l315 79v-782h-106v662l-205 -52z" />
<glyph unicode="&#xba;" horiz-adv-x="866" d="M68 909q0 178 104 287q106 111 266 111q158 0 260 -109q100 -106 101 -287q0 -178 -105 -288q-104 -109 -264 -109t-262 109q-100 106 -100 286zM172 911q0 -135 71.5 -219t190.5 -84t190.5 84t71.5 215q0 137 -71.5 221t-190.5 84t-190.5 -83t-71.5 -218z" />
<glyph unicode="&#xbb;" horiz-adv-x="1179" d="M76 152l401 325v4l-401 326l16 98l502 -358v-135l-502 -359zM633 170l383 307v4l-383 307l16 95l479 -340v-127l-479 -340z" />
<glyph unicode="&#xbc;" horiz-adv-x="1464" d="M129 1262l315 79v-782h-106v662l-205 -52zM168 -238l1100 1518h110l-1097 -1518h-113zM821 -25l379 512h119v-499h123l4 -84h-127v-197h-98v197h-390zM932 -12h289v391z" />
<glyph unicode="&#xbd;" horiz-adv-x="1464" d="M129 1262l315 79v-782h-106v662l-205 -52zM137 -238l1100 1518h111l-1098 -1518h-113zM846 -201l104 92q31 29 54.5 47.5t39.5 32.5t34 29.5t38 36.5q43 41 62.5 64.5t40.5 52.5q23 31 29.5 56.5t6.5 53.5q0 66 -45 104t-118 38q-104 0 -199 -82l-39 84q100 88 252 88 q119 0 188.5 -60.5t69.5 -165.5q0 -37 -29.5 -70.5t-73.5 -67.5t-95.5 -69.5t-95.5 -75.5t-73.5 -87t-29.5 -103h422l4 -90h-543z" />
<glyph unicode="&#xbe;" horiz-adv-x="1464" d="M68 594l20 88q100 -51 213 -51q82 0 138.5 37t56.5 104q0 59 -52.5 98t-144.5 37q-35 0 -65.5 -4t-53.5 -8v80q141 31 213 71.5t72 102.5q0 51 -42 81t-114 30q-106 0 -200 -74l-41 84q113 78 247 78q119 0 188.5 -50.5t69.5 -136.5q0 -139 -217 -194q119 0 183.5 -54.5 t64.5 -134.5q0 -55 -23.5 -98t-64.5 -74t-97.5 -47t-121.5 -16q-139 0 -229 51zM168 -238l1100 1518h110l-1097 -1518h-113zM821 -25l379 512h119v-499h123l4 -84h-127v-197h-98v197h-390zM932 -12h289v391z" />
<glyph unicode="&#xbf;" horiz-adv-x="714" d="M80 303q0 123 70 184q35 33 66.5 51.5t80.5 39.5q86 37 122 64.5t36 74.5q0 78 -121 174l65 22q158 -92 158 -213q0 -82 -49 -129t-148 -88q-88 -37 -131 -73.5t-43 -104.5q0 -45 19.5 -85t55.5 -69.5t87 -47t117 -17.5q49 0 141 18v-116q-66 -18 -145 -19 q-170 0 -277 101q-104 100 -104 233zM309 1198q0 43 30 72.5t73 29.5q23 0 39 -8t32 -22q23 -23 27 -53.5t-6 -58.5t-35 -47t-57 -19q-43 0 -73 31.5t-30 74.5z" />
<glyph unicode="&#xc0;" horiz-adv-x="1177" d="M225 1769h164l242 -366h-94zM31 0l485 1280h154l477 -1280h-133l-135 367h-580l-135 -367h-133zM344 485h490l-244 666z" />
<glyph unicode="&#xc1;" horiz-adv-x="1177" d="M532 1403l242 366h164l-312 -366h-94zM31 0l485 1280h154l477 -1280h-133l-135 367h-580l-135 -367h-133zM344 485h490l-244 666z" />
<glyph unicode="&#xc2;" horiz-adv-x="1177" d="M288 1403l232 373h143l232 -373h-97l-204 276h-2l-207 -276h-97zM31 0l485 1280h154l477 -1280h-133l-135 367h-580l-135 -367h-133zM344 485h490l-244 666z" />
<glyph unicode="&#xc3;" horiz-adv-x="1177" d="M258 1424q33 236 182 235q63 0 172 -73q106 -74 137 -74t51.5 29.5t38.5 105.5h84q-33 -236 -182 -236q-63 0 -170 72q-104 74 -137 74q-31 0 -52.5 -28.5t-39.5 -104.5h-84zM31 0l485 1280h154l477 -1280h-133l-135 367h-580l-135 -367h-133zM344 485h490l-244 666z" />
<glyph unicode="&#xc4;" horiz-adv-x="1177" d="M283 1557q0 43 30 72.5t73 29.5q23 0 39 -8t32 -22q23 -23 27 -53.5t-6.5 -58.5t-35 -47.5t-56.5 -19.5q-43 0 -73 32t-30 75zM678 1557q0 43 30 72.5t73 29.5q23 0 39 -8t32 -22q23 -23 27 -53.5t-6.5 -58.5t-35 -47.5t-56.5 -19.5q-43 0 -73 32t-30 75zM31 0l485 1280 h154l477 -1280h-133l-135 367h-580l-135 -367h-133zM344 485h490l-244 666z" />
<glyph unicode="&#xc5;" horiz-adv-x="1177" d="M31 0l458 1214q-63 25 -101 76t-38 117q0 92 65.5 152.5t176.5 60.5t175 -60.5t67 -152.5q0 -66 -37 -117t-103 -76l453 -1214h-133l-135 367h-578l-137 -367h-133zM344 485h492l-244 666zM440 1409q0 -59 42 -99t110 -40q70 0 111.5 39t41.5 96q0 59 -41.5 100 t-111.5 41q-68 0 -110 -40t-42 -97z" />
<glyph unicode="&#xc6;" horiz-adv-x="1675" d="M2 0l733 1280h846v-121h-643v-457h537v-120h-537v-461h643v-121h-774v356h-463l-203 -356h-139zM414 477h393v688z" />
<glyph unicode="&#xc7;" horiz-adv-x="1200" d="M96 637q0 303 172 485q174 184 447 185q223 0 395 -105l-41 -117q-162 102 -356 103q-215 0 -351 -146q-133 -145 -133 -401q0 -250 133 -401q131 -147 355 -148q203 0 358 115l25 -129q-141 -92 -344 -103l-117 -114h20q104 0 167 -44t63 -124q0 -88 -83 -147.5 t-245 -77.5l-10 86q236 12 235 129q0 98 -151 98q-53 0 -117 -12l-12 61l147 145q-256 23 -405 199q-152 180 -152 463z" />
<glyph unicode="&#xc8;" horiz-adv-x="1038" d="M213 1769h164l242 -366h-94zM164 0v1280h774v-121h-643v-459h536v-118h-536v-461h643v-121h-774z" />
<glyph unicode="&#xc9;" horiz-adv-x="1038" d="M448 1403l242 366h164l-312 -366h-94zM164 0v1280h774v-121h-643v-459h536v-118h-536v-461h643v-121h-774z" />
<glyph unicode="&#xca;" horiz-adv-x="1038" d="M249 1403l232 373h143l232 -373h-97l-204 276h-2l-207 -276h-97zM164 0v1280h774v-121h-643v-459h536v-118h-536v-461h643v-121h-774z" />
<glyph unicode="&#xcb;" horiz-adv-x="1038" d="M237 1557q0 43 30 72.5t73 29.5q23 0 39 -8t32 -22q23 -23 27 -53.5t-6.5 -58.5t-35 -47.5t-56.5 -19.5q-43 0 -73 32t-30 75zM633 1557q0 43 30 72.5t73 29.5q23 0 39 -8t32 -22q23 -23 27 -53.5t-6.5 -58.5t-35 -47.5t-56.5 -19.5q-43 0 -73 32t-30 75zM164 0v1280h774 v-121h-643v-459h536v-118h-536v-461h643v-121h-774z" />
<glyph unicode="&#xcc;" horiz-adv-x="466" d="M-109 1769h164l242 -366h-94zM168 0v1280h129v-1280h-129z" />
<glyph unicode="&#xcd;" horiz-adv-x="466" d="M184 1403l242 366h164l-312 -366h-94zM168 0v1280h129v-1280h-129z" />
<glyph unicode="&#xce;" horiz-adv-x="466" d="M-64 1403l232 373h143l232 -373h-97l-204 276h-2l-207 -276h-97zM168 0v1280h129v-1280h-129z" />
<glyph unicode="&#xcf;" horiz-adv-x="466" d="M-66 1557q0 43 30 72.5t73 29.5q23 0 39 -8t32 -22q23 -23 27 -53.5t-6.5 -58.5t-35 -47.5t-56.5 -19.5q-43 0 -73 32t-30 75zM326 1557q0 43 30 72.5t73 29.5q23 0 39 -8t32 -22q23 -23 27 -53.5t-6.5 -58.5t-35 -47.5t-56.5 -19.5q-43 0 -73 32t-30 75zM168 0v1280h129 v-1280h-129z" />
<glyph unicode="&#xd0;" horiz-adv-x="1323" d="M33 588v114h172v578h348q309 0 494 -174q184 -176 184 -457q0 -301 -182 -477q-182 -172 -506 -172h-338v588h-172zM336 121h213q127 0 228.5 32.5t173 98t110.5 162t39 225.5q0 246 -145.5 383t-409.5 137h-209v-457h358v-114h-358v-467z" />
<glyph unicode="&#xd1;" horiz-adv-x="1331" d="M334 1424q33 236 182 235q63 0 172 -73q106 -74 137 -74t51.5 29.5t38.5 105.5h84q-33 -236 -182 -236q-63 0 -170 72q-104 74 -137 74q-31 0 -52.5 -28.5t-39.5 -104.5h-84zM164 0v1280h147l727 -1098v1098h127v-1292h-141l-733 1108v-1096h-127z" />
<glyph unicode="&#xd2;" d="M387 1769h164l242 -366h-94zM96 637q0 293 178 481t453 189q270 0 449 -185q180 -182 180 -477q0 -293 -178 -483q-178 -188 -453 -189q-272 0 -451 185q-178 184 -178 479zM229 645q0 -246 142 -401q141 -154 360 -154q213 0 352 152q139 156 140 395q0 246 -142 399 q-139 154 -358 154q-217 0 -356 -152q-138 -149 -138 -393z" />
<glyph unicode="&#xd3;" d="M665 1403l242 366h164l-312 -366h-94zM96 637q0 293 178 481t453 189q270 0 449 -185q180 -182 180 -477q0 -293 -178 -483q-178 -188 -453 -189q-272 0 -451 185q-178 184 -178 479zM229 645q0 -246 142 -401q141 -154 360 -154q213 0 352 152q139 156 140 395 q0 246 -142 399q-139 154 -358 154q-217 0 -356 -152q-138 -149 -138 -393z" />
<glyph unicode="&#xd4;" d="M425 1403l232 373h143l232 -373h-97l-204 276h-2l-207 -276h-97zM96 637q0 293 178 481t453 189q270 0 449 -185q180 -182 180 -477q0 -293 -178 -483q-178 -188 -453 -189q-272 0 -451 185q-178 184 -178 479zM229 645q0 -246 142 -401q141 -154 360 -154q213 0 352 152 q139 156 140 395q0 246 -142 399q-139 154 -358 154q-217 0 -356 -152q-138 -149 -138 -393z" />
<glyph unicode="&#xd5;" d="M395 1424q33 236 182 235q63 0 172 -73q106 -74 137 -74t51.5 29.5t38.5 105.5h84q-33 -236 -182 -236q-63 0 -170 72q-104 74 -137 74q-31 0 -52.5 -28.5t-39.5 -104.5h-84zM96 637q0 293 178 481t453 189q270 0 449 -185q180 -182 180 -477q0 -293 -178 -483 q-178 -188 -453 -189q-272 0 -451 185q-178 184 -178 479zM229 645q0 -246 142 -401q141 -154 360 -154q213 0 352 152q139 156 140 395q0 246 -142 399q-139 154 -358 154q-217 0 -356 -152q-138 -149 -138 -393z" />
<glyph unicode="&#xd6;" d="M424 1557q0 43 30 72.5t73 29.5q23 0 39 -8t32 -22q23 -23 27 -53.5t-6.5 -58.5t-35 -47.5t-56.5 -19.5q-43 0 -73 32t-30 75zM819 1557q0 43 30 72.5t73 29.5q23 0 39 -8t32 -22q23 -23 27 -53.5t-6.5 -58.5t-35 -47.5t-56.5 -19.5q-43 0 -73 32t-30 75zM96 637 q0 293 178 481t453 189q270 0 449 -185q180 -182 180 -477q0 -293 -178 -483q-178 -188 -453 -189q-272 0 -451 185q-178 184 -178 479zM229 645q0 -246 142 -401q141 -154 360 -154q213 0 352 152q139 156 140 395q0 246 -142 399q-139 154 -358 154q-217 0 -356 -152 q-138 -149 -138 -393z" />
<glyph unicode="&#xd7;" horiz-adv-x="995" d="M80 133l346 346l-346 344l76 76l346 -346l346 348l76 -76l-349 -346l347 -346l-76 -76l-344 346l-346 -346z" />
<glyph unicode="&#xd8;" d="M100 637q0 293 179 481q178 188 452 189q154 0 291 -70l104 180h107l-131 -225q119 -88 187.5 -228.5t68.5 -318.5q0 -293 -178 -483q-178 -188 -451 -189q-156 0 -293 70l-102 -180h-107l21 39l92 153l18 33q-123 92 -190.5 231.5t-67.5 317.5zM231 645q0 -287 191 -446 l541 934q-106 57 -238 57q-217 0 -356 -152q-138 -149 -138 -393zM496 147q109 -57 237 -57q213 0 352 152q139 156 140 395q0 289 -187 444z" />
<glyph unicode="&#xd9;" horiz-adv-x="1261" d="M305 1769h164l242 -366h-94zM150 469v811h126v-795q0 -186 90.5 -288.5t268.5 -102.5q172 0 261 100.5t89 292.5v793h129v-791q0 -242 -125 -379t-360 -137q-229 0 -354 133.5t-125 362.5z" />
<glyph unicode="&#xda;" horiz-adv-x="1261" d="M544 1403l242 366h164l-312 -366h-94zM150 469v811h126v-795q0 -186 90.5 -288.5t268.5 -102.5q172 0 261 100.5t89 292.5v793h129v-791q0 -242 -125 -379t-360 -137q-229 0 -354 133.5t-125 362.5z" />
<glyph unicode="&#xdb;" horiz-adv-x="1261" d="M329 1403l232 373h143l232 -373h-97l-204 276h-2l-207 -276h-97zM150 469v811h126v-795q0 -186 90.5 -288.5t268.5 -102.5q172 0 261 100.5t89 292.5v793h129v-791q0 -242 -125 -379t-360 -137q-229 0 -354 133.5t-125 362.5z" />
<glyph unicode="&#xdc;" horiz-adv-x="1261" d="M328 1557q0 43 30 72.5t73 29.5q23 0 39 -8t32 -22q23 -23 27 -53.5t-6.5 -58.5t-35 -47.5t-56.5 -19.5q-43 0 -73 32t-30 75zM723 1557q0 43 30 72.5t73 29.5q23 0 39 -8t32 -22q23 -23 27 -53.5t-6.5 -58.5t-35 -47.5t-56.5 -19.5q-43 0 -73 32t-30 75zM150 469v811 h126v-795q0 -186 90.5 -288.5t268.5 -102.5q172 0 261 100.5t89 292.5v793h129v-791q0 -242 -125 -379t-360 -137q-229 0 -354 133.5t-125 362.5z" />
<glyph unicode="&#xdd;" horiz-adv-x="1073" d="M467 1403l242 366h164l-312 -366h-94zM25 1280h147l369 -637l362 637h146l-447 -766v-514h-131v514z" />
<glyph unicode="&#xde;" horiz-adv-x="1056" d="M164 0v1280h131v-219h190q248 0 374 -107.5t126 -294.5q0 -209 -135 -316t-381 -112l-174 -2v-229h-131zM295 352l182 2q373 4 373 301q0 137 -94 211t-275 74h-186v-588z" />
<glyph unicode="&#xdf;" horiz-adv-x="1124" d="M23 827l8 80l141 33l2 119q4 186 99.5 276t242.5 90q74 0 135.5 -22.5t105.5 -63.5t67.5 -97t23.5 -124q0 -66 -30 -115t-64.5 -89t-64.5 -72.5t-30 -67.5q0 -53 30 -90t74 -67.5t96 -60.5t96 -68.5t74 -92t30 -131.5q0 -135 -89 -213t-237 -78q-160 0 -293 84l35 117 q137 -90 260 -90q88 0 141.5 44t53.5 126q0 61 -29 101t-73 72t-94 59.5t-94 62.5t-72.5 82t-28.5 119q0 57 27.5 106t60.5 78q35 31 62.5 77t27.5 97q0 92 -53.5 149.5t-147.5 57.5q-104 0 -160.5 -63.5t-56.5 -180.5v-1071h-125v817z" />
<glyph unicode="&#xe0;" horiz-adv-x="899" d="M68 233q0 299 569 334v56q0 223 -221 223q-74 0 -159 -33t-148 -80l-29 119q33 25 76 45.5t89 35.5t93 23.5t90 8.5q336 0 336 -336v-451q0 -53 16.5 -73.5t69.5 -20.5h8l-8 -104h-27q-156 0 -178 133h-6q-115 -139 -274 -140q-66 0 -120.5 19.5t-93 54.5t-61 83 t-22.5 103zM201 248q0 -74 53 -119t139 -45q135 0 244 123v274q-236 -27 -336 -81t-100 -152zM112 1427h164l242 -366h-94z" />
<glyph unicode="&#xe1;" horiz-adv-x="899" d="M331 1061l242 366h164l-312 -366h-94zM68 233q0 299 569 334v56q0 223 -221 223q-74 0 -159 -33t-148 -80l-29 119q33 25 76 45.5t89 35.5t93 23.5t90 8.5q336 0 336 -336v-451q0 -53 16.5 -73.5t69.5 -20.5h8l-8 -104h-27q-156 0 -178 133h-6q-115 -139 -274 -140 q-66 0 -120.5 19.5t-93 54.5t-61 83t-22.5 103zM201 248q0 -74 53 -119t139 -45q135 0 244 123v274q-236 -27 -336 -81t-100 -152z" />
<glyph unicode="&#xe2;" horiz-adv-x="899" d="M68 233q0 299 569 334v56q0 223 -221 223q-74 0 -159 -33t-148 -80l-29 119q33 25 76 45.5t89 35.5t93 23.5t90 8.5q336 0 336 -336v-451q0 -53 16.5 -73.5t69.5 -20.5h8l-8 -104h-27q-156 0 -178 133h-6q-115 -139 -274 -140q-66 0 -120.5 19.5t-93 54.5t-61 83 t-22.5 103zM201 248q0 -74 53 -119t139 -45q135 0 244 123v274q-236 -27 -336 -81t-100 -152zM126 1061l232 373h143l232 -373h-97l-204 276h-2l-207 -276h-97z" />
<glyph unicode="&#xe3;" horiz-adv-x="899" d="M96 1082q33 236 182 235q63 0 172 -73q106 -74 137 -74t51.5 29.5t38.5 105.5h84q-33 -236 -182 -236q-63 0 -170 72q-104 74 -137 74q-31 0 -52.5 -28.5t-39.5 -104.5h-84zM68 233q0 299 569 334v56q0 223 -221 223q-74 0 -159 -33t-148 -80l-29 119q33 25 76 45.5 t89 35.5t93 23.5t90 8.5q336 0 336 -336v-451q0 -53 16.5 -73.5t69.5 -20.5h8l-8 -104h-27q-156 0 -178 133h-6q-115 -139 -274 -140q-66 0 -120.5 19.5t-93 54.5t-61 83t-22.5 103zM201 248q0 -74 53 -119t139 -45q135 0 244 123v274q-236 -27 -336 -81t-100 -152z" />
<glyph unicode="&#xe4;" horiz-adv-x="899" d="M125 1215q0 43 30 72.5t73 29.5q23 0 39 -8t32 -22q23 -23 27 -53.5t-6.5 -58.5t-35 -47.5t-56.5 -19.5q-43 0 -73 32t-30 75zM520 1215q0 43 30 72.5t73 29.5q23 0 39 -8t32 -22q23 -23 27 -53.5t-6.5 -58.5t-35 -47.5t-56.5 -19.5q-43 0 -73 32t-30 75zM68 233 q0 299 569 334v56q0 223 -221 223q-74 0 -159 -33t-148 -80l-29 119q33 25 76 45.5t89 35.5t93 23.5t90 8.5q336 0 336 -336v-451q0 -53 16.5 -73.5t69.5 -20.5h8l-8 -104h-27q-156 0 -178 133h-6q-115 -139 -274 -140q-66 0 -120.5 19.5t-93 54.5t-61 83t-22.5 103z M201 248q0 -74 53 -119t139 -45q135 0 244 123v274q-236 -27 -336 -81t-100 -152z" />
<glyph unicode="&#xe5;" horiz-adv-x="899" d="M68 233q0 299 569 334v56q0 223 -221 223q-74 0 -159 -33t-148 -80l-29 119q33 25 76 45.5t89 35.5t93 23.5t90 8.5q336 0 336 -336v-451q0 -53 16.5 -73.5t69.5 -20.5h8l-8 -104h-27q-156 0 -178 133h-6q-115 -139 -274 -140q-66 0 -120.5 19.5t-93 54.5t-61 83 t-22.5 103zM188 1266q0 92 65.5 152.5t176.5 60.5t177.5 -60.5t66.5 -152.5q2 -92 -65.5 -151.5t-178.5 -59.5t-176.5 59.5t-65.5 151.5zM201 248q0 -74 53 -119t139 -45q135 0 244 123v274q-236 -27 -336 -81t-100 -152zM281 1268q0 -57 42 -98.5t107 -41.5q70 0 112 39 t42 97q0 59 -42 100t-112 41q-66 0 -107.5 -40t-41.5 -97z" />
<glyph unicode="&#xe6;" horiz-adv-x="1509" d="M68 227q0 307 569 330l2 51v13q0 117 -55.5 170t-171.5 53q-150 0 -299 -111l-35 113q162 119 344 119q252 0 307 -181q123 180 344 181q156 0 249 -93.5t93 -253.5q0 -86 -20 -149l-635 -4v-10q0 -80 23.5 -146.5t66.5 -115t103.5 -75t133.5 -26.5q152 0 273 78l24 -117 q-129 -80 -301 -80q-123 0 -220 53.5t-154 147.5q-31 -43 -71 -80t-88 -63.5t-99.5 -42t-102.5 -15.5q-61 0 -113.5 19.5t-89 53.5t-57 80t-20.5 101zM199 242q0 -72 50 -113t132 -41q72 0 152.5 42t138.5 116q-37 94 -37 223q-436 -30 -436 -227zM768 565l520 2 q2 10 3 20.5t1 20.5q0 111 -58 176.5t-169 65.5q-121 0 -201 -81t-96 -204z" />
<glyph unicode="&#xe7;" horiz-adv-x="923" d="M86 467q0 219 129 358q133 139 332 140q166 0 293 -80l-33 -115q-113 76 -260 76q-76 0 -137.5 -27.5t-104.5 -77t-65.5 -118t-22.5 -152.5q0 -86 23.5 -155.5t67.5 -120t105.5 -77t135.5 -26.5q139 0 260 78l27 -117q-109 -66 -242 -78l-117 -114h21q104 0 166.5 -44 t62.5 -124q0 -88 -83 -147.5t-245 -77.5l-10 86q236 12 236 129q0 49 -40 73.5t-112 24.5q-29 0 -55.5 -3t-61.5 -9l-12 61l148 145q-92 8 -168 48t-128.5 105t-81 151t-28.5 188z" />
<glyph unicode="&#xe8;" horiz-adv-x="962" d="M86 461q0 223 125 362q125 141 317 142q156 0 249 -93.5t93 -253.5q0 -86 -20 -149l-635 -4v-10q0 -80 23.5 -146.5t66.5 -115t103.5 -75t134.5 -26.5q152 0 272 78l25 -117q-129 -80 -301 -80q-203 0 -328 136q-125 137 -125 352zM223 565l520 2q2 6 2 41 q0 111 -57 176.5t-168 65.5q-121 0 -201 -81t-96 -204zM176 1427h164l242 -366h-94z" />
<glyph unicode="&#xe9;" horiz-adv-x="962" d="M432 1061l242 366h164l-312 -366h-94zM86 461q0 223 125 362q125 141 317 142q156 0 249 -93.5t93 -253.5q0 -86 -20 -149l-635 -4v-10q0 -80 23.5 -146.5t66.5 -115t103.5 -75t134.5 -26.5q152 0 272 78l25 -117q-129 -80 -301 -80q-203 0 -328 136q-125 137 -125 352z M223 565l520 2q2 6 2 41q0 111 -57 176.5t-168 65.5q-121 0 -201 -81t-96 -204z" />
<glyph unicode="&#xea;" horiz-adv-x="962" d="M86 461q0 223 125 362q125 141 317 142q156 0 249 -93.5t93 -253.5q0 -86 -20 -149l-635 -4v-10q0 -80 23.5 -146.5t66.5 -115t103.5 -75t134.5 -26.5q152 0 272 78l25 -117q-129 -80 -301 -80q-203 0 -328 136q-125 137 -125 352zM223 565l520 2q2 6 2 41 q0 111 -57 176.5t-168 65.5q-121 0 -201 -81t-96 -204zM174 1061l232 373h143l232 -373h-97l-204 276h-2l-207 -276h-97z" />
<glyph unicode="&#xeb;" horiz-adv-x="962" d="M182 1215q0 43 30 72.5t73 29.5q23 0 39 -8t32 -22q23 -23 27 -53.5t-6.5 -58.5t-35 -47.5t-56.5 -19.5q-43 0 -73 32t-30 75zM577 1215q0 43 30 72.5t73 29.5q23 0 39 -8t32 -22q23 -23 27 -53.5t-6.5 -58.5t-35 -47.5t-56.5 -19.5q-43 0 -73 32t-30 75zM86 461 q0 223 125 362q125 141 317 142q156 0 249 -93.5t93 -253.5q0 -86 -20 -149l-635 -4v-10q0 -80 23.5 -146.5t66.5 -115t103.5 -75t134.5 -26.5q152 0 272 78l25 -117q-129 -80 -301 -80q-203 0 -328 136q-125 137 -125 352zM223 565l520 2q2 6 2 41q0 111 -57 176.5 t-168 65.5q-121 0 -201 -81t-96 -204z" />
<glyph unicode="&#xec;" horiz-adv-x="428" d="M-131 1427h164l241 -366h-94zM154 0v928l127 26v-954h-127z" />
<glyph unicode="&#xed;" horiz-adv-x="428" d="M154 0v928l127 26v-954h-127zM160 1061l241 366h164l-311 -366h-94z" />
<glyph unicode="&#xee;" horiz-adv-x="428" d="M-82 1061l232 373h143l231 -373h-96l-205 276h-2l-207 -276h-96zM154 0v928l127 26v-954h-127z" />
<glyph unicode="&#xef;" horiz-adv-x="428" d="M-84 1214q0 43 29.5 73t72.5 30q23 0 39.5 -8.5t32.5 -22.5q23 -23 27 -53.5t-6.5 -58t-35 -47t-57.5 -19.5q-43 0 -72.5 31.5t-29.5 74.5zM154 0v928l127 26v-954h-127zM309 1214q0 43 30 73t73 30q23 0 39 -8.5t32 -22.5q23 -23 27 -53.5t-6 -58t-35 -47t-57 -19.5 q-43 0 -73 31.5t-30 74.5z" />
<glyph unicode="&#xf0;" horiz-adv-x="1075" d="M86 424q0 211 127 338t295 127q164 0 291 -111h2q-63 160 -275 377l-239 -65l-25 94l187 51q-53 47 -97.5 87t-83.5 69q143 35 142 34q45 -35 88 -72.5t86 -80.5l215 57l24 -94l-164 -43q328 -360 328 -690q0 -236 -119 -381q-117 -147 -333 -148q-197 0 -324 127 q-125 125 -125 324zM221 438q0 -80 23.5 -144.5t64.5 -110.5t99.5 -70.5t130.5 -24.5q154 0 238.5 104.5t84.5 288.5q0 90 -37 193q-43 43 -123.5 71.5t-169.5 28.5q-141 0 -226 -91t-85 -245z" />
<glyph unicode="&#xf1;" horiz-adv-x="1034" d="M187 1082q33 236 182 235q63 0 172 -73q106 -74 137 -74t51.5 29.5t38.5 105.5h84q-33 -236 -182 -236q-63 0 -170 72q-104 74 -137 74q-31 0 -52.5 -28.5t-39.5 -104.5h-84zM147 0v938l127 27v-154q154 154 320 154q141 0 220 -84t79 -238v-643h-127v606 q0 123 -50 180.5t-157 57.5q-152 0 -285 -133v-711h-127z" />
<glyph unicode="&#xf2;" horiz-adv-x="1087" d="M86 467q0 221 131 358q133 139 332 140q197 0 323 -136q127 -137 127 -358q0 -223 -131 -360t-329 -138q-201 0 -326 136q-127 137 -127 358zM213 471q0 -86 23.5 -156.5t67.5 -121t105.5 -78t135.5 -27.5q147 0 237 105q92 106 92 274q0 86 -23.5 156.5t-67.5 121 t-105.5 78t-134.5 27.5q-147 0 -240 -107q-90 -106 -90 -272zM231 1427h164l242 -366h-94z" />
<glyph unicode="&#xf3;" horiz-adv-x="1087" d="M458 1061l242 366h164l-312 -366h-94zM86 467q0 221 131 358q133 139 332 140q197 0 323 -136q127 -137 127 -358q0 -223 -131 -360t-329 -138q-201 0 -326 136q-127 137 -127 358zM213 471q0 -86 23.5 -156.5t67.5 -121t105.5 -78t135.5 -27.5q147 0 237 105 q92 106 92 274q0 86 -23.5 156.5t-67.5 121t-105.5 78t-134.5 27.5q-147 0 -240 -107q-90 -106 -90 -272z" />
<glyph unicode="&#xf4;" horiz-adv-x="1087" d="M86 467q0 221 131 358q133 139 332 140q197 0 323 -136q127 -137 127 -358q0 -223 -131 -360t-329 -138q-201 0 -326 136q-127 137 -127 358zM213 471q0 -86 23.5 -156.5t67.5 -121t105.5 -78t135.5 -27.5q147 0 237 105q92 106 92 274q0 86 -23.5 156.5t-67.5 121 t-105.5 78t-134.5 27.5q-147 0 -240 -107q-90 -106 -90 -272zM243 1061l232 373h143l232 -373h-97l-204 276h-2l-207 -276h-97z" />
<glyph unicode="&#xf5;" horiz-adv-x="1087" d="M213 1082q33 236 182 235q63 0 172 -73q106 -74 137 -74t51.5 29.5t38.5 105.5h84q-33 -236 -182 -236q-63 0 -170 72q-104 74 -137 74q-31 0 -52.5 -28.5t-39.5 -104.5h-84zM86 467q0 221 131 358q133 139 332 140q197 0 323 -136q127 -137 127 -358q0 -223 -131 -360 t-329 -138q-201 0 -326 136q-127 137 -127 358zM213 471q0 -86 23.5 -156.5t67.5 -121t105.5 -78t135.5 -27.5q147 0 237 105q92 106 92 274q0 86 -23.5 156.5t-67.5 121t-105.5 78t-134.5 27.5q-147 0 -240 -107q-90 -106 -90 -272z" />
<glyph unicode="&#xf6;" horiz-adv-x="1087" d="M242 1215q0 43 30 72.5t73 29.5q23 0 39 -8t32 -22q23 -23 27 -53.5t-6.5 -58.5t-35 -47.5t-56.5 -19.5q-43 0 -73 32t-30 75zM637 1215q0 43 30 72.5t73 29.5q23 0 39 -8t32 -22q23 -23 27 -53.5t-6.5 -58.5t-35 -47.5t-56.5 -19.5q-43 0 -73 32t-30 75zM86 467 q0 221 131 358q133 139 332 140q197 0 323 -136q127 -137 127 -358q0 -223 -131 -360t-329 -138q-201 0 -326 136q-127 137 -127 358zM213 471q0 -86 23.5 -156.5t67.5 -121t105.5 -78t135.5 -27.5q147 0 237 105q92 106 92 274q0 86 -23.5 156.5t-67.5 121t-105.5 78 t-134.5 27.5q-147 0 -240 -107q-90 -106 -90 -272z" />
<glyph unicode="&#xf7;" horiz-adv-x="995" d="M84 426l6 111h817l6 -111h-829zM401 193q0 43 30 72.5t73 29.5q23 0 39 -8t32 -23q23 -23 27 -53.5t-6 -58t-34.5 -47t-57.5 -19.5q-43 0 -73 32t-30 75zM401 766q0 43 30 72.5t73 29.5q23 0 39 -8t32 -22q23 -23 27 -53.5t-6 -58.5t-34.5 -47.5t-57.5 -19.5 q-43 0 -73 32t-30 75z" />
<glyph unicode="&#xf8;" horiz-adv-x="1087" d="M90 467q0 221 131 358q133 139 332 140q109 0 201 -43l90 155h108l-118 -207q170 -139 170 -399q0 -223 -132 -360q-131 -137 -329 -138q-109 0 -201 45l-90 -155h-109l117 207q0 31 -26.5 71.5t-58.5 92t-58.5 109.5t-26.5 124zM215 471q0 -193 109 -297l370 643 q-63 33 -149 33q-147 0 -240 -107q-90 -106 -90 -272zM399 121q68 -33 150 -33q147 0 237 105q92 106 93 274q0 188 -109 297z" />
<glyph unicode="&#xf9;" horiz-adv-x="1032" d="M139 295v643h127v-606q0 -238 203 -238q160 0 289 133v711h127v-938l-127 -27v152q-147 -152 -324 -152q-137 0 -216 84t-79 238zM190 1427h164l242 -366h-94z" />
<glyph unicode="&#xfa;" horiz-adv-x="1032" d="M432 1061l242 366h164l-312 -366h-94zM139 295v643h127v-606q0 -238 203 -238q160 0 289 133v711h127v-938l-127 -27v152q-147 -152 -324 -152q-137 0 -216 84t-79 238z" />
<glyph unicode="&#xfb;" horiz-adv-x="1032" d="M139 295v643h127v-606q0 -238 203 -238q160 0 289 133v711h127v-938l-127 -27v152q-147 -152 -324 -152q-137 0 -216 84t-79 238zM215 1061l232 373h143l232 -373h-97l-204 276h-2l-207 -276h-97z" />
<glyph unicode="&#xfc;" horiz-adv-x="1032" d="M205 1215q0 43 30 72.5t73 29.5q23 0 39 -8t32 -22q23 -23 27 -53.5t-6.5 -58.5t-35 -47.5t-56.5 -19.5q-43 0 -73 32t-30 75zM600 1215q0 43 30 72.5t73 29.5q23 0 39 -8t32 -22q23 -23 27 -53.5t-6.5 -58.5t-35 -47.5t-56.5 -19.5q-43 0 -73 32t-30 75zM139 295v643 h127v-606q0 -238 203 -238q160 0 289 133v711h127v-938l-127 -27v152q-147 -152 -324 -152q-137 0 -216 84t-79 238z" />
<glyph unicode="&#xfd;" horiz-adv-x="868" d="M352 1061l242 366h164l-312 -366h-94zM-66 -444l39 116q78 -41 144 -41q29 0 53.5 10.5t47 35t45 66.5t46.5 105l64 166l-367 924h137l295 -774l289 774h133l-364 -928l-76 -203q-61 -166 -132 -230t-171 -64q-83 0 -183 43z" />
<glyph unicode="&#xfe;" horiz-adv-x="1048" d="M147 -492v1872l127 27v-557q131 109 269 108q193 0 307 -135q117 -135 117 -350q0 -221 -131 -360q-129 -139 -332 -140q-125 0 -230 50v-515h-127zM274 162q94 -74 236 -74q147 0 235 107q90 109 91 276q0 82 -21.5 150.5t-62.5 117.5t-98.5 76t-127.5 27 q-139 0 -252 -105v-575z" />
<glyph unicode="&#xff;" horiz-adv-x="868" d="M131 1215q0 43 30 72.5t73 29.5q23 0 39 -8t32 -22q23 -23 27 -53.5t-6.5 -58.5t-35 -47.5t-56.5 -19.5q-43 0 -73 32t-30 75zM526 1215q0 43 30 72.5t73 29.5q23 0 39 -8t32 -22q23 -23 27 -53.5t-6.5 -58.5t-35 -47.5t-56.5 -19.5q-43 0 -73 32t-30 75zM-66 -444 l39 116q78 -41 144 -41q29 0 53.5 10.5t47 35t45 66.5t46.5 105l64 166l-367 924h137l295 -774l289 774h133l-364 -928l-76 -203q-61 -166 -132 -230t-171 -64q-83 0 -183 43z" />
<glyph unicode="&#x152;" horiz-adv-x="2490" d="M1616 0v1280h774v-121h-643v-459h536v-118h-536v-461h643v-121h-774zM96 637q0 293 178 481t453 189q270 0 449 -185q180 -182 180 -477q0 -293 -178 -483q-178 -188 -453 -189q-272 0 -451 185q-178 184 -178 479zM229 645q0 -246 142 -401q141 -154 360 -154 q213 0 352 152q139 156 140 395q0 246 -142 399q-139 154 -358 154q-217 0 -356 -152q-138 -149 -138 -393z" />
<glyph unicode="&#x153;" horiz-adv-x="2050" d="M1173 461q0 223 125 362q125 141 317 142q156 0 249 -93.5t93 -253.5q0 -86 -20 -149l-635 -4v-10q0 -80 23.5 -146.5t66.5 -115t103.5 -75t134.5 -26.5q152 0 272 78l25 -117q-129 -80 -301 -80q-203 0 -328 136q-125 137 -125 352zM1310 565l520 2q2 6 2 41 q0 111 -57 176.5t-168 65.5q-121 0 -201 -81t-96 -204zM86 467q0 221 131 358q133 139 332 140q197 0 323 -136q127 -137 127 -358q0 -223 -131 -360t-329 -138q-201 0 -326 136q-127 137 -127 358zM213 471q0 -86 23.5 -156.5t67.5 -121t105.5 -78t135.5 -27.5 q147 0 237 105q92 106 92 274q0 86 -23.5 156.5t-67.5 121t-105.5 78t-134.5 27.5q-147 0 -240 -107q-90 -106 -90 -272z" />
<glyph unicode="&#x178;" horiz-adv-x="1073" d="M237 1537q0 43 30 72.5t73 29.5q23 0 39 -8t32 -22q23 -23 27 -53.5t-6.5 -58.5t-35 -47.5t-56.5 -19.5q-43 0 -73 32t-30 75zM633 1537q0 43 30 72.5t73 29.5q23 0 39 -8t32 -22q23 -23 27 -53.5t-6.5 -58.5t-35 -47.5t-56.5 -19.5q-43 0 -73 32t-30 75zM25 1280h147 l369 -637l362 637h146l-447 -766v-514h-131v514z" />
<glyph unicode="&#x2c6;" horiz-adv-x="772" d="M106 1061l232 373h143l232 -373h-97l-204 276h-2l-207 -276h-97z" />
<glyph unicode="&#x2dc;" horiz-adv-x="813" d="M76 1082q33 236 182 235q63 0 172 -73q106 -74 137 -74t51.5 29.5t38.5 105.5h84q-33 -236 -182 -236q-63 0 -170 72q-104 74 -137 74q-31 0 -52.5 -28.5t-39.5 -104.5h-84z" />
<glyph unicode="&#x2000;" horiz-adv-x="886" />
<glyph unicode="&#x2001;" horiz-adv-x="1775" />
<glyph unicode="&#x2002;" horiz-adv-x="886" />
<glyph unicode="&#x2003;" horiz-adv-x="1775" />
<glyph unicode="&#x2004;" horiz-adv-x="591" />
<glyph unicode="&#x2005;" horiz-adv-x="442" />
<glyph unicode="&#x2006;" horiz-adv-x="294" />
<glyph unicode="&#x2007;" horiz-adv-x="294" />
<glyph unicode="&#x2008;" horiz-adv-x="221" />
<glyph unicode="&#x2009;" horiz-adv-x="354" />
<glyph unicode="&#x200a;" horiz-adv-x="98" />
<glyph unicode="&#x2010;" horiz-adv-x="598" d="M70 438v119h462v-119h-462z" />
<glyph unicode="&#x2011;" horiz-adv-x="598" d="M70 438v119h462v-119h-462z" />
<glyph unicode="&#x2012;" horiz-adv-x="598" d="M70 438v119h462v-119h-462z" />
<glyph unicode="&#x2013;" horiz-adv-x="911" d="M63 440l7 101h774l6 -101h-787z" />
<glyph unicode="&#x2014;" horiz-adv-x="1873" d="M63 440l7 101h1736l6 -101h-1749z" />
<glyph unicode="&#x2018;" horiz-adv-x="382" d="M51 991q0 190 254 352l55 -51q-180 -131 -180 -245q0 -39 29 -65t98 -52q-4 -41 -32.5 -71t-77.5 -30q-57 0 -101.5 46t-44.5 116z" />
<glyph unicode="&#x2019;" horiz-adv-x="382" d="M23 885q180 129 180 243q0 39 -29 65t-98 52q4 41 33.5 71t76.5 30q57 0 101.5 -46.5t44.5 -115.5q0 -186 -254 -355z" />
<glyph unicode="&#x201c;" horiz-adv-x="786" d="M51 991q0 190 254 352l55 -51q-180 -131 -180 -245q0 -39 29 -65t98 -52q-4 -41 -32.5 -71t-77.5 -30q-57 0 -101.5 46t-44.5 116zM454 991q0 190 254 352l55 -51q-180 -131 -180 -245q0 -39 29 -65t98 -52q-4 -41 -32.5 -71t-77.5 -30q-57 0 -101.5 46t-44.5 116z" />
<glyph unicode="&#x201d;" horiz-adv-x="786" d="M23 885q180 129 180 243q0 39 -29 65t-98 52q4 41 33.5 71t76.5 30q57 0 101.5 -46.5t44.5 -115.5q0 -186 -254 -355zM426 885q180 129 180 243q0 39 -29 65t-98 52q4 41 33.5 71t76.5 30q57 0 101.5 -46.5t44.5 -115.5q0 -186 -254 -355z" />
<glyph unicode="&#x201e;" horiz-adv-x="772" d="M23 -258q180 129 180 243q0 39 -29 65t-98 52q4 41 33.5 71t76.5 30q57 0 101.5 -46.5t44.5 -115.5q0 -186 -254 -355zM426 -258q180 129 180 243q0 39 -29 65t-98 52q4 41 33.5 71t76.5 30q57 0 101.5 -46.5t44.5 -115.5q0 -186 -254 -355z" />
<glyph unicode="&#x2022;" horiz-adv-x="925" d="M68 475q0 43 43 146q43 102 73 133q31 31 133 71q100 43 146 43q43 0 145 -43q100 -41 133 -71q31 -33 72 -133q43 -102 43 -146q0 -43 -41 -147q-39 -98 -74 -133q-31 -31 -133 -74q-104 -41 -147 -41q-41 0 -146 41q-104 45 -131 74q-31 33 -73 135q-43 100 -43 145z " />
<glyph unicode="&#x2026;" horiz-adv-x="1159" d="M90 80q0 43 30 72.5t73 29.5q23 0 39 -8t32 -22q23 -23 27 -53.5t-6.5 -58.5t-35 -47.5t-56.5 -19.5q-43 0 -73 32t-30 75zM477 80q0 43 30 72.5t73 29.5q23 0 39 -8t32 -22q23 -23 27 -53.5t-6.5 -58.5t-35 -47.5t-56.5 -19.5q-43 0 -73 32t-30 75zM866 80q0 43 30 72.5 t73 29.5q23 0 39 -8t32 -22q23 -23 27 -53.5t-6.5 -58.5t-35 -47.5t-56.5 -19.5q-43 0 -73 32t-30 75z" />
<glyph unicode="&#x202f;" horiz-adv-x="354" />
<glyph unicode="&#x2039;" horiz-adv-x="671" d="M63 412v135l502 358l17 -98l-408 -326v-4l408 -325l-17 -99z" />
<glyph unicode="&#x203a;" horiz-adv-x="671" d="M88 152l410 325v4l-410 326l16 98l504 -358v-135l-504 -359z" />
<glyph unicode="&#x205f;" horiz-adv-x="442" />
<glyph unicode="&#x20ac;" horiz-adv-x="1032" d="M68 430l6 92h141q-2 37 -3 64.5t-1 48.5q0 127 4 127h-141l-6 92h161q39 227 159 342t306 115q180 0 295 -70l-28 -113q-115 70 -267 70q-279 0 -340 -344h482l-7 -92h-485q-2 -37 -3 -65.5t-1 -49.5q0 -23 1 -54.5t3 -70.5h424l6 -92h-418q66 -348 332 -348 q156 0 277 68l20 -113q-123 -68 -301 -68q-389 0 -459 461h-157z" />
<glyph unicode="&#x2122;" horiz-adv-x="1859" d="M68 1186v96h686v-96h-299v-670h-99v670h-288zM862 516l31 766h170l203 -645h14l225 645h162l29 -766h-101l-18 649h-14l-240 -639h-115l-215 639h-14l-23 -649h-94z" />
<glyph unicode="&#xe000;" horiz-adv-x="940" d="M0 940h940v-940h-940v940z" />
<glyph unicode="&#xfb01;" horiz-adv-x="1038" d="M737 1247q0 37 22.5 63.5t63.5 26.5t63.5 -26.5t22.5 -63.5q0 -39 -22.5 -66.5t-63.5 -27.5t-63.5 27.5t-22.5 66.5zM760 0v938l126 27v-965h-126zM23 827l8 80l141 33l2 147q6 338 283 338q84 0 172 -41l-6 -18q-6 -18 -11.5 -39.5t-9.5 -40.5l-4 -16q-10 0 -27.5 4 t-42.5 14q-51 20 -73 21q-156 0 -156 -219v-156h295l-6 -113h-289v-821h-125v817z" />
<glyph unicode="&#xfb02;" horiz-adv-x="1032" d="M757 0v1380l127 27v-1407h-127zM23 827l8 80l141 33l2 147q6 338 283 338q84 0 172 -41l-6 -18q-6 -18 -11.5 -39.5t-9.5 -40.5l-4 -16q-10 0 -27.5 4t-42.5 14q-51 20 -73 21q-156 0 -156 -219v-156h295l-6 -113h-289v-821h-125v817z" />
<glyph unicode="&#xfb03;" horiz-adv-x="1648" d="M1348 1247q0 37 22.5 63.5t63.5 26.5t63.5 -26.5t22.5 -63.5q0 -39 -22.5 -66.5t-63.5 -27.5t-63.5 27.5t-22.5 66.5zM1371 0v938l126 27v-965h-126zM633 827l8 80l141 33l2 147q6 338 283 338q84 0 172 -41l-6 -18q-6 -18 -11.5 -39.5t-9.5 -40.5l-4 -16q-10 0 -27.5 4 t-42.5 14q-51 20 -73 21q-156 0 -156 -219v-156h295l-6 -113h-289v-821h-125v817zM23 827l8 80l141 33l2 147q6 338 283 338q84 0 172 -41l-6 -18q-6 -18 -11.5 -39.5t-9.5 -40.5l-4 -16q-10 0 -27.5 4t-42.5 14q-51 20 -73 21q-156 0 -156 -219v-156h295l-6 -113h-289v-821 h-125v817z" />
<glyph unicode="&#xfb04;" horiz-adv-x="1642" d="M1368 0v1380l127 27v-1407h-127zM633 827l8 80l141 33l2 147q6 338 283 338q84 0 172 -41l-6 -18q-6 -18 -11.5 -39.5t-9.5 -40.5l-4 -16q-10 0 -27.5 4t-42.5 14q-51 20 -73 21q-156 0 -156 -219v-156h295l-6 -113h-289v-821h-125v817zM23 827l8 80l141 33l2 147 q6 338 283 338q84 0 172 -41l-6 -18q-6 -18 -11.5 -39.5t-9.5 -40.5l-4 -16q-10 0 -27.5 4t-42.5 14q-51 20 -73 21q-156 0 -156 -219v-156h295l-6 -113h-289v-821h-125v817z" />
</font>
</defs>
</svg>
